# WaveFront *.obj file (generated by Autodesk ATF)

mtllib shaft.mtl

g Solid1

v 0.000000 -0.750000 0.000000
v 0.000000 -0.743584 -0.097895
v 0.000000 -0.744086 -0.094000
v 0.000000 -0.744086 0.094000
v 0.000000 -0.743584 0.097895
v 0.000000 -0.726437 -0.186517
v 0.000000 -0.726437 0.186517
v 0.000000 -0.724444 -0.194114
v 0.000000 -0.724444 0.194114
v 0.000000 -0.697332 -0.276093
v 0.000000 -0.697332 0.276093
v 0.000000 -0.692910 -0.287013
v 0.000000 -0.692910 0.287013
v 0.000000 -0.657230 -0.361315
v 0.000000 -0.657230 0.361315
v 0.000000 -0.649519 -0.375000
v 0.000000 -0.649519 0.375000
v 0.000000 -0.606763 -0.440839
v 0.000000 -0.606763 0.440839
v 0.000000 -0.595015 -0.456571
v 0.000000 -0.595015 0.456571
v 0.000000 -0.546726 -0.513410
v 0.000000 -0.546726 0.513410
v 0.000000 -0.530330 -0.530330
v 0.000000 -0.530330 0.530330
v 0.000000 -0.478068 -0.577885
v 0.000000 -0.478068 0.577885
v 0.000000 -0.456571 -0.595015
v 0.000000 -0.456571 0.595015
v 0.000000 -0.401870 -0.633246
v 0.000000 -0.401870 0.633246
v 0.000000 -0.375000 -0.649519
v 0.000000 -0.375000 0.649519
v 0.000000 -0.319334 -0.678620
v 0.000000 -0.319334 0.678620
v 0.000000 -0.287013 -0.692910
v 0.000000 -0.287013 0.692910
v 0.000000 -0.231763 -0.713292
v 0.000000 -0.231763 0.713292
v 0.000000 -0.194114 -0.724444
v 0.000000 -0.194114 0.724444
v 0.000000 -0.140536 -0.736715
v 0.000000 -0.140536 0.736715
v 0.000000 -0.097895 -0.743584
v 0.000000 -0.097895 0.743584
v 0.000000 -0.047093 -0.748520
v 0.000000 -0.047093 0.748520
v 0.000000 0.000000 -0.750000
v 0.000000 0.000000 0.750000
v 0.000000 0.047093 -0.748520
v 0.000000 0.047093 0.748520
v 0.000000 0.097895 -0.743584
v 0.000000 0.097895 0.743584
v 0.000000 0.140536 -0.736715
v 0.000000 0.140536 0.736715
v 0.000000 0.194114 -0.724444
v 0.000000 0.194114 0.724444
v 0.000000 0.231763 -0.713292
v 0.000000 0.231763 0.713292
v 0.000000 0.287013 -0.692910
v 0.000000 0.287013 0.692910
v 0.000000 0.319334 -0.678620
v 0.000000 0.319334 0.678620
v 0.000000 0.375000 -0.649519
v 0.000000 0.375000 0.649519
v 0.000000 0.401870 -0.633246
v 0.000000 0.401870 0.633246
v 0.000000 0.456571 -0.595015
v 0.000000 0.456571 0.595015
v 0.000000 0.478068 -0.577885
v 0.000000 0.478068 0.577885
v 0.000000 0.530330 -0.530330
v 0.000000 0.530330 0.530330
v 0.000000 0.546726 -0.513410
v 0.000000 0.546726 0.513410
v 0.000000 0.595015 -0.456571
v 0.000000 0.595015 0.456571
v 0.000000 0.606763 -0.440839
v 0.000000 0.606763 0.440839
v 0.000000 0.649519 -0.375000
v 0.000000 0.649519 0.375000
v 0.000000 0.657230 -0.361315
v 0.000000 0.657230 0.361315
v 0.000000 0.692910 -0.287013
v 0.000000 0.692910 0.287013
v 0.000000 0.697332 -0.276093
v 0.000000 0.697332 0.276093
v 0.000000 0.724444 -0.194114
v 0.000000 0.724444 0.194114
v 0.000000 0.726437 -0.186517
v 0.000000 0.726437 0.186517
v 0.000000 0.743584 -0.097895
v 0.000000 0.744086 -0.094000
v 0.000000 0.744086 0.094000
v 0.000000 0.743584 0.097895
v 0.000000 0.750000 0.000000
v 30.000000 -0.750000 0.000000
v 30.000000 -0.743584 -0.097895
v 30.000000 -0.743584 0.097895
v 30.000000 -0.724444 -0.194114
v 30.000000 -0.724444 0.194114
v 30.000000 -0.692910 -0.287013
v 30.000000 -0.692910 0.287013
v 30.000000 -0.649519 -0.375000
v 30.000000 -0.649519 0.375000
v 30.000000 -0.595015 -0.456571
v 30.000000 -0.595015 0.456571
v 30.000000 -0.530330 -0.530330
v 30.000000 -0.530330 0.530330
v 30.000000 -0.456571 -0.595015
v 30.000000 -0.456571 0.595015
v 30.000000 -0.375000 -0.649519
v 30.000000 -0.375000 0.649519
v 30.000000 -0.287013 -0.692910
v 30.000000 -0.287013 0.692910
v 30.000000 -0.194114 -0.724444
v 30.000000 -0.194114 0.724444
v 30.000000 -0.097895 -0.743584
v 30.000000 -0.097895 0.743584
v 30.000000 0.000000 -0.750000
v 30.000000 0.000000 0.750000
v 30.000000 0.097895 -0.743584
v 30.000000 0.097895 0.743584
v 30.000000 0.194114 -0.724444
v 30.000000 0.194114 0.724444
v 30.000000 0.287013 -0.692910
v 30.000000 0.287013 0.692910
v 30.000000 0.375000 -0.649519
v 30.000000 0.375000 0.649519
v 30.000000 0.456571 -0.595015
v 30.000000 0.456571 0.595015
v 30.000000 0.530330 -0.530330
v 30.000000 0.530330 0.530330
v 30.000000 0.595015 -0.456571
v 30.000000 0.595015 0.456571
v 30.000000 0.649519 -0.375000
v 30.000000 0.649519 0.375000
v 30.000000 0.692910 -0.287013
v 30.000000 0.692910 0.287013
v 30.000000 0.724444 -0.194114
v 30.000000 0.724444 0.194114
v 30.000000 0.743584 -0.097895
v 30.000000 0.743584 0.097895
v 30.000000 0.750000 0.000000
vt -3.000000 0.235619 0.000000
vt -3.000000 0.225802 0.000000
vt -3.000000 0.215984 0.000000
vt -3.000000 0.206167 0.000000
vt -3.000000 0.196350 0.000000
vt -3.000000 0.186532 0.000000
vt -3.000000 0.176715 0.000000
vt -3.000000 0.166897 0.000000
vt -3.000000 0.157080 0.000000
vt -3.000000 0.147262 0.000000
vt -3.000000 0.137445 0.000000
vt -3.000000 0.127627 0.000000
vt -3.000000 0.117810 0.000000
vt -3.000000 0.107992 0.000000
vt -3.000000 0.098175 0.000000
vt -3.000000 0.088357 0.000000
vt -3.000000 0.078540 0.000000
vt -3.000000 0.068722 0.000000
vt -3.000000 0.058905 0.000000
vt -3.000000 0.049087 0.000000
vt -3.000000 0.039270 0.000000
vt -3.000000 0.029452 0.000000
vt -3.000000 0.019635 0.000000
vt -3.000000 0.009817 0.000000
vt -3.000000 0.000000 0.000000
vt -3.000000 -0.009817 0.000000
vt -3.000000 -0.019635 0.000000
vt -3.000000 -0.029452 0.000000
vt -3.000000 -0.039270 0.000000
vt -3.000000 -0.049087 0.000000
vt -3.000000 -0.058905 0.000000
vt -3.000000 -0.068722 0.000000
vt -3.000000 -0.078540 0.000000
vt -3.000000 -0.088357 0.000000
vt -3.000000 -0.098175 0.000000
vt -3.000000 -0.107992 0.000000
vt -3.000000 -0.117810 0.000000
vt -3.000000 -0.127627 0.000000
vt -3.000000 -0.137445 0.000000
vt -3.000000 -0.147262 0.000000
vt -3.000000 -0.157080 0.000000
vt -3.000000 -0.166897 0.000000
vt -3.000000 -0.176715 0.000000
vt -3.000000 -0.186532 0.000000
vt -3.000000 -0.196350 0.000000
vt -3.000000 -0.206167 0.000000
vt -3.000000 -0.215984 0.000000
vt -3.000000 -0.225802 0.000000
vt -0.000000 0.000000 0.000000
vt -0.000000 0.009817 0.000000
vt -0.000000 0.019635 0.000000
vt -0.000000 0.029452 0.000000
vt -0.000000 0.039270 0.000000
vt -0.000000 0.049087 0.000000
vt -0.000000 0.058905 0.000000
vt -0.000000 0.068722 0.000000
vt -0.000000 0.078540 0.000000
vt -0.000000 0.088357 0.000000
vt -0.000000 0.098175 0.000000
vt -0.000000 0.107992 0.000000
vt -0.000000 0.117810 0.000000
vt -0.000000 0.127627 0.000000
vt -0.000000 0.137445 0.000000
vt -0.000000 0.147262 0.000000
vt -0.000000 0.157080 0.000000
vt -0.000000 0.166897 0.000000
vt -0.000000 0.176715 0.000000
vt -0.000000 0.186532 0.000000
vt -0.000000 0.196350 0.000000
vt -0.000000 0.206167 0.000000
vt -0.000000 0.215984 0.000000
vt -0.000000 0.225802 0.000000
vt -0.000000 -0.235619 0.000000
vt -0.000000 -0.225802 0.000000
vt -0.000000 -0.215984 0.000000
vt -0.000000 -0.206167 0.000000
vt -0.000000 -0.196350 0.000000
vt -0.000000 -0.186532 0.000000
vt -0.000000 -0.176715 0.000000
vt -0.000000 -0.166897 0.000000
vt -0.000000 -0.157080 0.000000
vt -0.000000 -0.147262 0.000000
vt -0.000000 -0.137445 0.000000
vt -0.000000 -0.127627 0.000000
vt -0.000000 -0.117810 0.000000
vt -0.000000 -0.107992 0.000000
vt -0.000000 -0.098175 0.000000
vt -0.000000 -0.088357 0.000000
vt -0.000000 -0.078540 0.000000
vt -0.000000 -0.068722 0.000000
vt -0.000000 -0.058905 0.000000
vt -0.000000 -0.049087 0.000000
vt -0.000000 -0.039270 0.000000
vt -0.000000 -0.029452 0.000000
vt -0.000000 -0.019635 0.000000
vt -0.000000 -0.009817 0.000000
vt -0.000000 0.235619 0.000000
vt -3.000000 -0.235619 0.000000
vt 0.000000 -0.075000 0.000000
vt 0.009789 -0.074358 0.000000
vt 0.019411 -0.072444 0.000000
vt 0.028701 -0.069291 0.000000
vt 0.037500 -0.064952 0.000000
vt 0.045657 -0.059501 0.000000
vt 0.053033 -0.053033 0.000000
vt 0.059501 -0.045657 0.000000
vt 0.064952 -0.037500 0.000000
vt 0.069291 -0.028701 0.000000
vt 0.072444 -0.019411 0.000000
vt 0.074358 -0.009789 0.000000
vt 0.075000 0.000000 0.000000
vt 0.074358 0.009789 0.000000
vt 0.072444 0.019411 0.000000
vt 0.069291 0.028701 0.000000
vt 0.064952 0.037500 0.000000
vt 0.059501 0.045657 0.000000
vt 0.053033 0.053033 0.000000
vt 0.045657 0.059501 0.000000
vt 0.037500 0.064952 0.000000
vt 0.028701 0.069291 0.000000
vt 0.019411 0.072444 0.000000
vt 0.009789 0.074358 0.000000
vt 0.000000 0.075000 0.000000
vt -0.009789 0.074358 0.000000
vt -0.019411 0.072444 0.000000
vt -0.028701 0.069291 0.000000
vt -0.037500 0.064952 0.000000
vt -0.045657 0.059501 0.000000
vt -0.053033 0.053033 0.000000
vt -0.059501 0.045657 0.000000
vt -0.064952 0.037500 0.000000
vt -0.069291 0.028701 0.000000
vt -0.072444 0.019411 0.000000
vt -0.074358 0.009789 0.000000
vt -0.075000 0.000000 0.000000
vt -0.074358 -0.009789 0.000000
vt -0.072444 -0.019411 0.000000
vt -0.069291 -0.028701 0.000000
vt -0.064952 -0.037500 0.000000
vt -0.059501 -0.045657 0.000000
vt -0.053033 -0.053033 0.000000
vt -0.045657 -0.059501 0.000000
vt -0.037500 -0.064952 0.000000
vt -0.028701 -0.069291 0.000000
vt -0.019411 -0.072444 0.000000
vt -0.009789 -0.074358 0.000000
vt -0.000000 0.075000 0.000000
vt -0.009400 0.074409 0.000000
vt -0.018652 0.072644 0.000000
vt -0.027609 0.069733 0.000000
vt -0.036132 0.065723 0.000000
vt -0.044084 0.060676 0.000000
vt -0.051341 0.054673 0.000000
vt -0.057788 0.047807 0.000000
vt -0.063325 0.040187 0.000000
vt -0.067862 0.031933 0.000000
vt -0.071329 0.023176 0.000000
vt -0.073672 0.014054 0.000000
vt -0.074852 0.004709 0.000000
vt -0.074852 -0.004709 0.000000
vt -0.073672 -0.014054 0.000000
vt -0.071329 -0.023176 0.000000
vt -0.067862 -0.031933 0.000000
vt -0.063325 -0.040187 0.000000
vt -0.057788 -0.047807 0.000000
vt -0.051341 -0.054673 0.000000
vt -0.044084 -0.060676 0.000000
vt -0.036132 -0.065723 0.000000
vt -0.027609 -0.069733 0.000000
vt -0.018652 -0.072644 0.000000
vt -0.009400 -0.074409 0.000000
vt -0.000000 -0.075000 0.000000
vt 0.009400 -0.074409 0.000000
vt 0.018652 -0.072644 0.000000
vt 0.027609 -0.069733 0.000000
vt 0.036132 -0.065723 0.000000
vt 0.044084 -0.060676 0.000000
vt 0.051341 -0.054673 0.000000
vt 0.057788 -0.047807 0.000000
vt 0.063325 -0.040187 0.000000
vt 0.067862 -0.031933 0.000000
vt 0.071329 -0.023176 0.000000
vt 0.073672 -0.014054 0.000000
vt 0.074852 -0.004709 0.000000
vt 0.074852 0.004709 0.000000
vt 0.073672 0.014054 0.000000
vt 0.071329 0.023176 0.000000
vt 0.067862 0.031933 0.000000
vt 0.063325 0.040187 0.000000
vt 0.057788 0.047807 0.000000
vt 0.051341 0.054673 0.000000
vt 0.044084 0.060676 0.000000
vt 0.036132 0.065723 0.000000
vt 0.027609 0.069733 0.000000
vt 0.018652 0.072644 0.000000
vt 0.009400 0.074409 0.000000
vn 0.000000 -0.100000 0.000000
vn 0.000000 -0.099144 0.013053
vn 0.000000 -0.096593 0.025882
vn 0.000000 -0.092388 0.038268
vn 0.000000 -0.086603 0.050000
vn 0.000000 -0.079335 0.060876
vn 0.000000 -0.070711 0.070711
vn 0.000000 -0.060876 0.079335
vn 0.000000 -0.050000 0.086603
vn 0.000000 -0.038268 0.092388
vn 0.000000 -0.025882 0.096593
vn 0.000000 -0.013053 0.099144
vn 0.000000 0.000000 0.100000
vn 0.000000 0.013053 0.099144
vn 0.000000 0.025882 0.096593
vn 0.000000 0.038268 0.092388
vn 0.000000 0.050000 0.086603
vn 0.000000 0.060876 0.079335
vn 0.000000 0.070711 0.070711
vn 0.000000 0.079335 0.060876
vn 0.000000 0.086603 0.050000
vn 0.000000 0.092388 0.038268
vn 0.000000 0.096593 0.025882
vn 0.000000 0.099144 0.013053
vn 0.000000 0.100000 0.000000
vn 0.000000 0.099144 -0.013053
vn 0.000000 0.096593 -0.025882
vn 0.000000 0.092388 -0.038268
vn 0.000000 0.086603 -0.050000
vn 0.000000 0.079335 -0.060876
vn 0.000000 0.070711 -0.070711
vn 0.000000 0.060876 -0.079335
vn 0.000000 0.050000 -0.086603
vn 0.000000 0.038268 -0.092388
vn 0.000000 0.025882 -0.096593
vn 0.000000 0.013053 -0.099144
vn 0.000000 0.000000 -0.100000
vn 0.000000 -0.013053 -0.099144
vn 0.000000 -0.025882 -0.096593
vn 0.000000 -0.038268 -0.092388
vn 0.000000 -0.050000 -0.086603
vn 0.000000 -0.060876 -0.079335
vn 0.000000 -0.070711 -0.070711
vn 0.000000 -0.079335 -0.060876
vn 0.000000 -0.086603 -0.050000
vn 0.000000 -0.092388 -0.038268
vn 0.000000 -0.096593 -0.025882
vn 0.000000 -0.099144 -0.013053
vn 0.000000 0.100000 0.000000
vn 0.000000 0.099144 0.013053
vn 0.000000 0.096593 0.025882
vn 0.000000 0.092388 0.038268
vn 0.000000 0.086603 0.050000
vn 0.000000 0.079335 0.060876
vn 0.000000 0.070711 0.070711
vn 0.000000 0.060876 0.079335
vn 0.000000 0.050000 0.086603
vn 0.000000 0.038268 0.092388
vn 0.000000 0.025882 0.096593
vn 0.000000 0.013053 0.099144
vn 0.000000 0.000000 0.100000
vn 0.000000 -0.013053 0.099144
vn 0.000000 -0.025882 0.096593
vn 0.000000 -0.038268 0.092388
vn 0.000000 -0.050000 0.086603
vn 0.000000 -0.060876 0.079335
vn 0.000000 -0.070711 0.070711
vn 0.000000 -0.079335 0.060876
vn 0.000000 -0.086603 0.050000
vn 0.000000 -0.092388 0.038268
vn 0.000000 -0.096593 0.025882
vn 0.000000 -0.099144 0.013053
vn 0.000000 -0.100000 0.000000
vn 0.000000 -0.099144 -0.013053
vn 0.000000 -0.096593 -0.025882
vn 0.000000 -0.092388 -0.038268
vn 0.000000 -0.086603 -0.050000
vn 0.000000 -0.079335 -0.060876
vn 0.000000 -0.070711 -0.070711
vn 0.000000 -0.060876 -0.079335
vn 0.000000 -0.050000 -0.086603
vn 0.000000 -0.038268 -0.092388
vn 0.000000 -0.025882 -0.096593
vn 0.000000 -0.013053 -0.099144
vn 0.000000 0.000000 -0.100000
vn 0.000000 0.013053 -0.099144
vn 0.000000 0.025882 -0.096593
vn 0.000000 0.038268 -0.092388
vn 0.000000 0.050000 -0.086603
vn 0.000000 0.060876 -0.079335
vn 0.000000 0.070711 -0.070711
vn 0.000000 0.079335 -0.060876
vn 0.000000 0.086603 -0.050000
vn 0.000000 0.092388 -0.038268
vn 0.000000 0.096593 -0.025882
vn 0.000000 0.099144 -0.013053
vn 0.000000 -0.100000 0.000000
vn 0.000000 -0.100000 0.000000
vn 0.100000 0.000000 0.000000
vn 0.100000 0.000000 0.000000
vn 0.100000 0.000000 0.000000
vn 0.100000 0.000000 0.000000
vn 0.100000 0.000000 0.000000
vn 0.100000 0.000000 0.000000
vn 0.100000 0.000000 0.000000
vn 0.100000 0.000000 0.000000
vn 0.100000 0.000000 0.000000
vn 0.100000 0.000000 0.000000
vn 0.100000 0.000000 0.000000
vn 0.100000 0.000000 0.000000
vn 0.100000 0.000000 0.000000
vn 0.100000 0.000000 0.000000
vn 0.100000 0.000000 0.000000
vn 0.100000 0.000000 0.000000
vn 0.100000 0.000000 0.000000
vn 0.100000 0.000000 0.000000
vn 0.100000 0.000000 0.000000
vn 0.100000 0.000000 0.000000
vn 0.100000 0.000000 0.000000
vn 0.100000 0.000000 0.000000
vn 0.100000 0.000000 0.000000
vn 0.100000 0.000000 0.000000
vn 0.100000 0.000000 0.000000
vn 0.100000 0.000000 0.000000
vn 0.100000 0.000000 0.000000
vn 0.100000 0.000000 0.000000
vn 0.100000 0.000000 0.000000
vn 0.100000 0.000000 0.000000
vn 0.100000 0.000000 0.000000
vn 0.100000 0.000000 0.000000
vn 0.100000 0.000000 0.000000
vn 0.100000 0.000000 0.000000
vn 0.100000 0.000000 0.000000
vn 0.100000 0.000000 0.000000
vn 0.100000 0.000000 0.000000
vn 0.100000 0.000000 0.000000
vn 0.100000 0.000000 0.000000
vn 0.100000 0.000000 0.000000
vn 0.100000 0.000000 0.000000
vn 0.100000 0.000000 0.000000
vn 0.100000 0.000000 0.000000
vn 0.100000 0.000000 0.000000
vn 0.100000 0.000000 0.000000
vn 0.100000 0.000000 0.000000
vn 0.100000 0.000000 0.000000
vn 0.100000 0.000000 0.000000
vn -0.100000 0.000000 0.000000
vn -0.100000 0.000000 0.000000
vn -0.100000 0.000000 0.000000
vn -0.100000 0.000000 0.000000
vn -0.100000 0.000000 0.000000
vn -0.100000 0.000000 0.000000
vn -0.100000 0.000000 0.000000
vn -0.100000 0.000000 0.000000
vn -0.100000 0.000000 0.000000
vn -0.100000 0.000000 0.000000
vn -0.100000 0.000000 0.000000
vn -0.100000 0.000000 0.000000
vn -0.100000 0.000000 0.000000
vn -0.100000 0.000000 0.000000
vn -0.100000 0.000000 0.000000
vn -0.100000 0.000000 0.000000
vn -0.100000 0.000000 0.000000
vn -0.100000 0.000000 0.000000
vn -0.100000 0.000000 0.000000
vn -0.100000 0.000000 0.000000
vn -0.100000 0.000000 0.000000
vn -0.100000 0.000000 0.000000
vn -0.100000 0.000000 0.000000
vn -0.100000 0.000000 0.000000
vn -0.100000 0.000000 0.000000
vn -0.100000 0.000000 0.000000
vn -0.100000 0.000000 0.000000
vn -0.100000 0.000000 0.000000
vn -0.100000 0.000000 0.000000
vn -0.100000 0.000000 0.000000
vn -0.100000 0.000000 0.000000
vn -0.100000 0.000000 0.000000
vn -0.100000 0.000000 0.000000
vn -0.100000 0.000000 0.000000
vn -0.100000 0.000000 0.000000
vn -0.100000 0.000000 0.000000
vn -0.100000 0.000000 0.000000
vn -0.100000 0.000000 0.000000
vn -0.100000 0.000000 0.000000
vn -0.100000 0.000000 0.000000
vn -0.100000 0.000000 0.000000
vn -0.100000 0.000000 0.000000
vn -0.100000 0.000000 0.000000
vn -0.100000 0.000000 0.000000
vn -0.100000 0.000000 0.000000
vn -0.100000 0.000000 0.000000
vn -0.100000 0.000000 0.000000
vn -0.100000 0.000000 0.000000
vn -0.100000 0.000000 0.000000
vn -0.100000 0.000000 0.000000
usemtl 72,71,61
f 99/2/2 5/72/72 97/1/1
f 97/1/1 5/72/72 1/97/97
f 97/98/98 1/73/73 98/48/48
f 98/48/48 1/73/73 2/74/74
f 98/48/48 2/74/74 8/75/75
f 99/2/2 101/3/3 5/72/72
f 5/72/72 101/3/3 9/71/71
f 9/71/71 101/3/3 103/4/4
f 9/71/71 103/4/4 13/70/70
f 13/70/70 103/4/4 105/5/5
f 13/70/70 105/5/5 17/69/69
f 17/69/69 105/5/5 107/6/6
f 17/69/69 107/6/6 21/68/68
f 21/68/68 107/6/6 109/7/7
f 21/68/68 109/7/7 25/67/67
f 25/67/67 109/7/7 111/8/8
f 25/67/67 111/8/8 29/66/66
f 29/66/66 111/8/8 113/9/9
f 29/66/66 113/9/9 33/65/65
f 33/65/65 113/9/9 115/10/10
f 33/65/65 115/10/10 37/64/64
f 37/64/64 115/10/10 117/11/11
f 37/64/64 117/11/11 41/63/63
f 41/63/63 117/11/11 119/12/12
f 41/63/63 119/12/12 45/62/62
f 45/62/62 119/12/12 121/13/13
f 45/62/62 121/13/13 49/61/61
f 49/61/61 121/13/13 123/14/14
f 49/61/61 123/14/14 53/60/60
f 53/60/60 123/14/14 125/15/15
f 53/60/60 125/15/15 57/59/59
f 57/59/59 125/15/15 127/16/16
f 57/59/59 127/16/16 61/58/58
f 61/58/58 127/16/16 129/17/17
f 61/58/58 129/17/17 65/57/57
f 65/57/57 129/17/17 131/18/18
f 65/57/57 131/18/18 69/56/56
f 69/56/56 131/18/18 133/19/19
f 69/56/56 133/19/19 73/55/55
f 73/55/55 133/19/19 135/20/20
f 73/55/55 135/20/20 77/54/54
f 77/54/54 135/20/20 137/21/21
f 77/54/54 137/21/21 81/53/53
f 81/53/53 137/21/21 139/22/22
f 81/53/53 139/22/22 85/52/52
f 85/52/52 139/22/22 141/23/23
f 85/52/52 141/23/23 89/51/51
f 89/51/51 141/23/23 143/24/24
f 89/51/51 143/24/24 95/50/50
f 95/50/50 143/24/24 144/25/25
f 95/50/50 144/25/25 96/49/49
f 96/49/49 144/25/25 142/26/26
f 96/49/49 142/26/26 92/96/96
f 92/96/96 142/26/26 140/27/27
f 92/96/96 140/27/27 88/95/95
f 88/95/95 140/27/27 138/28/28
f 88/95/95 138/28/28 84/94/94
f 84/94/94 138/28/28 136/29/29
f 84/94/94 136/29/29 80/93/93
f 80/93/93 136/29/29 134/30/30
f 80/93/93 134/30/30 76/92/92
f 76/92/92 134/30/30 132/31/31
f 76/92/92 132/31/31 72/91/91
f 72/91/91 132/31/31 130/32/32
f 72/91/91 130/32/32 68/90/90
f 68/90/90 130/32/32 128/33/33
f 68/90/90 128/33/33 64/89/89
f 64/89/89 128/33/33 126/34/34
f 64/89/89 126/34/34 60/88/88
f 60/88/88 126/34/34 124/35/35
f 60/88/88 124/35/35 56/87/87
f 56/87/87 124/35/35 122/36/36
f 56/87/87 122/36/36 52/86/86
f 52/86/86 122/36/36 120/37/37
f 52/86/86 120/37/37 48/85/85
f 48/85/85 120/37/37 118/38/38
f 48/85/85 118/38/38 44/84/84
f 44/84/84 118/38/38 116/39/39
f 44/84/84 116/39/39 40/83/83
f 40/83/83 116/39/39 114/40/40
f 40/83/83 114/40/40 36/82/82
f 36/82/82 114/40/40 112/41/41
f 36/82/82 112/41/41 32/81/81
f 32/81/81 112/41/41 110/42/42
f 32/81/81 110/42/42 28/80/80
f 28/80/80 110/42/42 108/43/43
f 28/80/80 108/43/43 24/79/79
f 24/79/79 108/43/43 106/44/44
f 24/79/79 106/44/44 20/78/78
f 20/78/78 106/44/44 104/45/45
f 20/78/78 104/45/45 16/77/77
f 16/77/77 104/45/45 102/46/46
f 16/77/77 102/46/46 12/76/76
f 12/76/76 102/46/46 100/47/47
f 12/76/76 100/47/47 8/75/75
f 8/75/75 100/47/47 98/48/48
f 97/99/99 98/100/100 99/146/146
f 99/146/146 98/100/100 101/145/145
f 101/145/145 98/100/100 100/101/101
f 101/145/145 100/101/101 103/144/144
f 103/144/144 100/101/101 102/102/102
f 103/144/144 102/102/102 105/143/143
f 105/143/143 102/102/102 104/103/103
f 105/143/143 104/103/103 107/142/142
f 107/142/142 104/103/103 106/104/104
f 107/142/142 106/104/104 109/141/141
f 109/141/141 106/104/104 108/105/105
f 109/141/141 108/105/105 111/140/140
f 111/140/140 108/105/105 110/106/106
f 111/140/140 110/106/106 113/139/139
f 113/139/139 110/106/106 112/107/107
f 113/139/139 112/107/107 115/138/138
f 115/138/138 112/107/107 114/108/108
f 115/138/138 114/108/108 117/137/137
f 117/137/137 114/108/108 116/109/109
f 117/137/137 116/109/109 119/136/136
f 119/136/136 116/109/109 118/110/110
f 119/136/136 118/110/110 121/135/135
f 121/135/135 118/110/110 120/111/111
f 121/135/135 120/111/111 123/134/134
f 123/134/134 120/111/111 122/112/112
f 123/134/134 122/112/112 125/133/133
f 125/133/133 122/112/112 124/113/113
f 125/133/133 124/113/113 127/132/132
f 127/132/132 124/113/113 126/114/114
f 127/132/132 126/114/114 129/131/131
f 129/131/131 126/114/114 128/115/115
f 129/131/131 128/115/115 131/130/130
f 131/130/130 128/115/115 130/116/116
f 131/130/130 130/116/116 133/129/129
f 133/129/129 130/116/116 132/117/117
f 133/129/129 132/117/117 135/128/128
f 135/128/128 132/117/117 134/118/118
f 135/128/128 134/118/118 137/127/127
f 137/127/127 134/118/118 136/119/119
f 137/127/127 136/119/119 139/126/126
f 139/126/126 136/119/119 138/120/120
f 139/126/126 138/120/120 141/125/125
f 141/125/125 138/120/120 140/121/121
f 141/125/125 140/121/121 143/124/124
f 143/124/124 140/121/121 142/122/122
f 143/124/124 142/122/122 144/123/123
f 94/196/196 96/147/147 39/182/182
f 39/182/182 96/147/147 93/148/148
f 39/182/182 93/148/148 90/149/149
f 90/149/149 86/150/150 39/182/182
f 39/182/182 86/150/150 82/151/151
f 39/182/182 82/151/151 78/152/152
f 78/152/152 74/153/153 39/182/182
f 39/182/182 74/153/153 70/154/154
f 39/182/182 70/154/154 66/155/155
f 66/155/155 62/156/156 39/182/182
f 39/182/182 62/156/156 58/157/157
f 39/182/182 58/157/157 54/158/158
f 54/158/158 50/159/159 39/182/182
f 39/182/182 50/159/159 46/160/160
f 39/182/182 46/160/160 42/161/161
f 42/161/161 38/162/162 39/182/182
f 39/182/182 38/162/162 35/181/181
f 35/181/181 38/162/162 34/163/163
f 35/181/181 34/163/163 31/180/180
f 31/180/180 34/163/163 30/164/164
f 31/180/180 30/164/164 27/179/179
f 27/179/179 30/164/164 26/165/165
f 27/179/179 26/165/165 23/178/178
f 23/178/178 26/165/165 22/166/166
f 23/178/178 22/166/166 19/177/177
f 19/177/177 22/166/166 18/167/167
f 19/177/177 18/167/167 15/176/176
f 15/176/176 18/167/167 14/168/168
f 15/176/176 14/168/168 11/175/175
f 11/175/175 14/168/168 10/169/169
f 11/175/175 10/169/169 7/174/174
f 7/174/174 10/169/169 6/170/170
f 7/174/174 6/170/170 4/173/173
f 4/173/173 6/170/170 3/171/171
f 4/173/173 3/171/171 1/172/172
f 43/183/183 59/187/187 39/182/182
f 39/182/182 59/187/187 63/188/188
f 39/182/182 63/188/188 67/189/189
f 59/187/187 43/183/183 55/186/186
f 55/186/186 43/183/183 47/184/184
f 55/186/186 47/184/184 51/185/185
f 67/189/189 71/190/190 39/182/182
f 39/182/182 71/190/190 75/191/191
f 39/182/182 75/191/191 79/192/192
f 79/192/192 83/193/193 39/182/182
f 39/182/182 83/193/193 87/194/194
f 39/182/182 87/194/194 91/195/195
f 91/195/195 94/196/196 39/182/182

# 144 vertices
# 196 texture params
# 196 normals
# 190 facets

# 1 groups
